<svg width="304" height="44" viewBox="0 0 304 44" fill="none" xmlns="http://www.w3.org/2000/svg">
<path d="M0 8C0 3.58172 3.58172 0 8 0H296C300.418 0 304 3.58172 304 8V36C304 40.4183 300.418 44 296 44H8.00001C3.58173 44 0 40.4183 0 36V8Z" fill="white" fill-opacity="0.1"/>
<g clip-path="url(#clip0_20804_99327)">
<path d="M42 11.9966H12V31.9935H42V11.9966Z" fill="#F0F0F0"/>
<path d="M42 11.9966H12V18.6622H42V11.9966ZM42 25.3372H12V32.0028H42V25.3372Z" fill="#338AF3"/>
<path d="M29.3906 22L28.4156 22.4594L28.9312 23.4062L27.8719 23.2L27.7406 24.2781L27 23.4906L26.2594 24.2781L26.1281 23.2L25.0687 23.4062L25.5844 22.4594L24.6094 22L25.5844 21.5406L25.0687 20.5937L26.1281 20.8L26.2594 19.7219L27 20.5094L27.7406 19.7219L27.8719 20.8L28.9312 20.5937L28.4156 21.5406L29.3906 22Z" fill="#FFDA44"/>
</g>
<path d="M58.4219 31.5469H55.5469V17.7969H58.4219V18.7266H56.6875V30.6172H58.4219V31.5469ZM68.3984 28.0312C67.8932 28.401 67.3594 28.6875 66.7969 28.8906C66.2344 29.0885 65.5911 29.1875 64.8672 29.1875C63.2005 29.1875 61.8906 28.6745 60.9375 27.6484C59.9896 26.6224 59.5156 25.276 59.5156 23.6094C59.5156 21.7917 60.0339 20.3385 61.0703 19.25C62.112 18.1562 63.4661 17.6094 65.1328 17.6094C65.763 17.6094 66.3385 17.7005 66.8594 17.8828C67.3854 18.0599 67.8802 18.3255 68.3438 18.6797L67.7188 19.625C67.3281 19.349 66.9245 19.1432 66.5078 19.0078C66.0911 18.8724 65.6276 18.8047 65.1172 18.8047C63.8359 18.8047 62.8099 19.2292 62.0391 20.0781C61.2734 20.9271 60.8906 22.0781 60.8906 23.5312C60.8906 24.8906 61.2604 25.9766 62 26.7891C62.7396 27.5964 63.7188 28 64.9375 28C65.4688 28 65.9635 27.9219 66.4219 27.7656C66.8802 27.6094 67.3203 27.3802 67.7422 27.0781L68.3984 28.0312ZM73.625 29.1875C72.4323 29.1875 71.4818 28.8151 70.7734 28.0703C70.0703 27.3203 69.7188 26.3281 69.7188 25.0938C69.7188 23.7656 70.0885 22.7214 70.8281 21.9609C71.5677 21.2005 72.5573 20.8177 73.7969 20.8125C74.9948 20.8073 75.9297 21.1771 76.6016 21.9219C77.2786 22.6667 77.6172 23.6823 77.6172 24.9688C77.6172 26.2344 77.2552 27.2552 76.5312 28.0312C75.8125 28.8021 74.8438 29.1875 73.625 29.1875ZM73.7188 28.1016C74.5417 28.1016 75.1771 27.8333 75.625 27.2969C76.0781 26.7552 76.3047 25.9948 76.3047 25.0156C76.3047 24.0312 76.0781 23.2656 75.625 22.7188C75.1719 22.1719 74.5365 21.8984 73.7188 21.8984C72.8958 21.8984 72.2422 22.1823 71.7578 22.75C71.2734 23.3125 71.0312 24.0781 71.0312 25.0469C71.0312 26 71.276 26.7474 71.7656 27.2891C72.2552 27.8307 72.9062 28.1016 73.7188 28.1016ZM86.1094 29H84.8281V27.7578H84.7969C84.5312 28.2266 84.1901 28.5833 83.7734 28.8281C83.3568 29.0677 82.875 29.1875 82.3281 29.1875C81.375 29.1875 80.6589 28.9062 80.1797 28.3438C79.7057 27.7812 79.4688 26.9349 79.4688 25.8047V21H80.7422V25.6172C80.7422 26.4557 80.8984 27.0807 81.2109 27.4922C81.5286 27.8984 82.0104 28.1016 82.6562 28.1016C83.2917 28.1016 83.8125 27.8698 84.2188 27.4062C84.625 26.9427 84.8281 26.3411 84.8281 25.6016V21H86.1094V29ZM95.3125 29H94.0312V24.3984C94.0312 23.5599 93.8776 22.9349 93.5703 22.5234C93.263 22.1068 92.7995 21.8984 92.1797 21.8984C91.5339 21.8984 91 22.138 90.5781 22.6172C90.1615 23.0964 89.9531 23.7031 89.9531 24.4375V29H88.6719V21H89.9531V22.2891H89.9844C90.2865 21.7943 90.6562 21.4245 91.0938 21.1797C91.5312 20.9349 92.0365 20.8125 92.6094 20.8125C93.4844 20.8125 94.1536 21.0964 94.6172 21.6641C95.0807 22.2266 95.3125 23.0417 95.3125 24.1094V29ZM101.586 28.8203C101.367 28.9401 101.143 29.0286 100.914 29.0859C100.69 29.1432 100.432 29.1719 100.141 29.1719C99.5052 29.1719 99.0078 28.9896 98.6484 28.625C98.2943 28.2552 98.1172 27.7135 98.1172 27V22.0938H96.7422V21H98.1172V19.0625L99.3984 18.6875V21H101.438V22.0938H99.3984V26.8594C99.3984 27.3021 99.4766 27.6224 99.6328 27.8203C99.7943 28.013 100.039 28.1094 100.367 28.1094C100.523 28.1094 100.672 28.0885 100.812 28.0469C100.958 28.0052 101.089 27.9453 101.203 27.8672L101.586 28.8203ZM107.164 22.1172C107.06 22.0807 106.961 22.0547 106.867 22.0391C106.773 22.0182 106.661 22.0078 106.531 22.0078C105.896 22.0078 105.393 22.2839 105.023 22.8359C104.654 23.388 104.469 24.0833 104.469 24.9219V29H103.188V21H104.469V22.5625H104.5C104.682 22.0104 104.961 21.5885 105.336 21.2969C105.711 21.0052 106.141 20.8594 106.625 20.8594C106.797 20.8594 106.945 20.8698 107.07 20.8906C107.195 20.9115 107.315 20.9453 107.43 20.9922L107.164 22.1172ZM115.242 21L111.438 30.6094C111.151 31.3333 110.786 31.8724 110.344 32.2266C109.906 32.5859 109.391 32.7656 108.797 32.7656C108.615 32.7656 108.448 32.7526 108.297 32.7266C108.151 32.7005 108.008 32.6641 107.867 32.6172L108.172 31.5391C108.276 31.5807 108.375 31.6094 108.469 31.625C108.568 31.6458 108.664 31.6562 108.758 31.6562C109.086 31.6562 109.359 31.5729 109.578 31.4062C109.797 31.2396 109.977 30.9844 110.117 30.6406L110.812 28.9844L107.688 21H109.109L111.266 27.0703C111.281 27.1328 111.302 27.2161 111.328 27.3203C111.359 27.4193 111.396 27.5495 111.438 27.7109H111.484C111.505 27.6276 111.529 27.5365 111.555 27.4375C111.581 27.3385 111.615 27.2214 111.656 27.0859L113.914 21H115.242ZM118.586 31.5469H115.719V30.6172H117.445V18.7266H115.719V17.7969H118.586V31.5469Z" fill="white"/>
<path d="M241.016 28.0312C240.495 28.401 239.943 28.6875 239.359 28.8906C238.776 29.0885 238.12 29.1875 237.391 29.1875C235.688 29.1875 234.346 28.6875 233.367 27.6875C232.393 26.6823 231.906 25.3151 231.906 23.5859C231.906 21.8099 232.435 20.3698 233.492 19.2656C234.549 18.1615 235.932 17.6094 237.641 17.6094C238.312 17.6094 238.914 17.6979 239.445 17.875C239.977 18.0521 240.479 18.3177 240.953 18.6719L240.133 20C239.758 19.7396 239.372 19.5495 238.977 19.4297C238.586 19.3099 238.148 19.25 237.664 19.25C236.549 19.25 235.635 19.6302 234.922 20.3906C234.214 21.151 233.859 22.1745 233.859 23.4609C233.859 24.7214 234.193 25.7161 234.859 26.4453C235.531 27.1745 236.427 27.5391 237.547 27.5391C237.99 27.5391 238.427 27.4688 238.859 27.3281C239.297 27.1875 239.719 26.974 240.125 26.6875L241.016 28.0312ZM246.234 29.1875C244.979 29.1875 243.984 28.8151 243.25 28.0703C242.516 27.3203 242.148 26.3177 242.148 25.0625C242.154 23.7448 242.536 22.7083 243.297 21.9531C244.057 21.1927 245.083 20.8125 246.375 20.8125C247.635 20.8073 248.62 21.1797 249.328 21.9297C250.042 22.6745 250.398 23.6745 250.398 24.9297C250.398 26.2161 250.021 27.2474 249.266 28.0234C248.516 28.7995 247.505 29.1875 246.234 29.1875ZM246.312 27.7344C247.036 27.7344 247.589 27.4974 247.969 27.0234C248.349 26.5443 248.539 25.862 248.539 24.9766C248.539 24.1068 248.346 23.4375 247.961 22.9688C247.581 22.5 247.029 22.2656 246.305 22.2656C245.591 22.2656 245.029 22.513 244.617 23.0078C244.206 23.4974 244 24.1693 244 25.0234C244 25.888 244.203 26.5573 244.609 27.0312C245.021 27.5 245.589 27.7344 246.312 27.7344ZM259.344 29H257.531V24.4531C257.531 23.7292 257.396 23.1849 257.125 22.8203C256.854 22.4505 256.451 22.2656 255.914 22.2656C255.367 22.2656 254.917 22.4714 254.562 22.8828C254.208 23.2943 254.031 23.8125 254.031 24.4375V29H252.211V21H254.031V22.25H254.062C254.354 21.776 254.719 21.4193 255.156 21.1797C255.594 20.9349 256.094 20.8125 256.656 20.8125C257.531 20.8125 258.198 21.0911 258.656 21.6484C259.115 22.2057 259.344 23.0234 259.344 24.1016V29ZM268.656 29H266.844V24.4531C266.844 23.7292 266.708 23.1849 266.438 22.8203C266.167 22.4505 265.763 22.2656 265.227 22.2656C264.68 22.2656 264.229 22.4714 263.875 22.8828C263.521 23.2943 263.344 23.8125 263.344 24.4375V29H261.523V21H263.344V22.25H263.375C263.667 21.776 264.031 21.4193 264.469 21.1797C264.906 20.9349 265.406 20.8125 265.969 20.8125C266.844 20.8125 267.51 21.0911 267.969 21.6484C268.427 22.2057 268.656 23.0234 268.656 24.1016V29ZM277.625 25.4688H272.148C272.174 26.2292 272.391 26.8047 272.797 27.1953C273.203 27.5859 273.755 27.7812 274.453 27.7812C274.776 27.7812 275.122 27.7135 275.492 27.5781C275.862 27.4427 276.216 27.2292 276.555 26.9375L277.5 27.9922C277.031 28.3984 276.534 28.7005 276.008 28.8984C275.487 29.0911 274.904 29.1875 274.258 29.1875C273.029 29.1875 272.065 28.8307 271.367 28.1172C270.674 27.4036 270.326 26.3984 270.32 25.1016C270.32 23.8255 270.68 22.7917 271.398 22C272.117 21.2083 273.034 20.8125 274.148 20.8125C275.232 20.8125 276.081 21.151 276.695 21.8281C277.315 22.5 277.625 23.4583 277.625 24.7031V25.4688ZM275.867 24.2031C275.867 23.5312 275.716 23.0234 275.414 22.6797C275.112 22.3307 274.688 22.1562 274.141 22.1562C273.615 22.1562 273.169 22.3438 272.805 22.7188C272.445 23.0885 272.227 23.5833 272.148 24.2031H275.867ZM285.5 28.2891C285.115 28.6016 284.708 28.8307 284.281 28.9766C283.854 29.1172 283.388 29.1875 282.883 29.1875C281.643 29.1875 280.656 28.8255 279.922 28.1016C279.188 27.3776 278.82 26.401 278.82 25.1719C278.82 23.8385 279.201 22.7786 279.961 21.9922C280.727 21.2057 281.75 20.8125 283.031 20.8125C283.536 20.8125 283.995 20.8828 284.406 21.0234C284.823 21.1589 285.214 21.375 285.578 21.6719L284.711 22.8203C284.445 22.6224 284.18 22.4818 283.914 22.3984C283.648 22.3099 283.354 22.2656 283.031 22.2656C282.292 22.2656 281.714 22.5156 281.297 23.0156C280.88 23.5156 280.672 24.1849 280.672 25.0234C280.672 25.8932 280.893 26.5625 281.336 27.0312C281.779 27.4948 282.341 27.7266 283.023 27.7266C283.268 27.7266 283.529 27.6823 283.805 27.5938C284.081 27.5 284.352 27.349 284.617 27.1406L285.5 28.2891ZM291.484 28.7969C291.25 28.9271 290.997 29.0234 290.727 29.0859C290.461 29.1484 290.172 29.1797 289.859 29.1797C289.115 29.1797 288.544 28.9844 288.148 28.5938C287.753 28.2031 287.555 27.6224 287.555 26.8516V22.4219H286.211V21H287.555V19.0547L289.367 18.5547V21H291.305V22.4219H289.367V26.7188C289.367 27.0938 289.435 27.3646 289.57 27.5312C289.711 27.6979 289.93 27.7812 290.227 27.7812C290.367 27.7812 290.503 27.763 290.633 27.7266C290.768 27.6901 290.893 27.6354 291.008 27.5625L291.484 28.7969Z" fill="white"/>
<defs>
<clipPath id="clip0_20804_99327">
<rect x="12" y="12" width="30" height="20" rx="4" fill="white"/>
</clipPath>
</defs>
</svg>
