<svg width="20" height="20" viewBox="0 0 20 20" fill="none" xmlns="http://www.w3.org/2000/svg">
<path fill-rule="evenodd" clip-rule="evenodd" d="M6.5 6.25H6.25C6.25 4.17893 7.92893 2.5 10 2.5C12.0711 2.5 13.75 4.17893 13.75 6.25H13.5H6.5ZM5 6.27399V6.25C5 3.48858 7.23858 1.25 10 1.25C12.7614 1.25 15 3.48858 15 6.25V6.27399C15.4903 6.30392 15.8381 6.37121 16.135 6.52248C16.6054 6.76217 16.9878 7.14462 17.2275 7.61502C17.5 8.1498 17.5 8.84987 17.5 10.25V14.75C17.5 16.1501 17.5 16.8502 17.2275 17.385C16.9878 17.8554 16.6054 18.2378 16.135 18.4775C15.6002 18.75 14.9001 18.75 13.5 18.75H6.5C5.09987 18.75 4.3998 18.75 3.86502 18.4775C3.39462 18.2378 3.01217 17.8554 2.77248 17.385C2.5 16.8502 2.5 16.1501 2.5 14.75V10.25C2.5 8.84987 2.5 8.1498 2.77248 7.61502C3.01217 7.14462 3.39462 6.76217 3.86502 6.52248C4.16191 6.37121 4.50973 6.30392 5 6.27399ZM10.5883 12.3532C10.9821 12.1428 11.25 11.7277 11.25 11.25C11.25 10.5596 10.6904 10 10 10C9.30964 10 8.75 10.5596 8.75 11.25C8.75 11.7277 9.01793 12.1428 9.4117 12.3532L8.86649 14.534C8.80732 14.7707 8.98633 15 9.23029 15H10.7697C11.0137 15 11.1927 14.7707 11.1335 14.534L10.5883 12.3532Z" fill="#2CFFCC"/>
</svg>
