<svg width="16" height="16" viewBox="0 0 16 16" fill="none" xmlns="http://www.w3.org/2000/svg">
<path fill-rule="evenodd" clip-rule="evenodd" d="M8.00032 2.02889L3.07028 3.72337C2.90935 5.50687 2.99321 7.38287 3.657 9.12626C4.32749 10.8872 5.61511 12.5818 8.0003 13.9276C10.3852 12.5819 11.6726 10.8873 12.343 9.1263C13.0067 7.38289 13.0906 5.50688 12.9297 3.72333L8.00032 2.02889ZM7.83875 1.027L2.43988 2.88262C2.25841 2.945 2.12788 3.10594 2.1074 3.29786C1.68939 7.21514 2.27767 11.9902 7.771 14.9428C7.91285 15.0191 8.08782 15.0191 8.22966 14.9428C13.7224 11.9902 14.3104 7.21515 13.8926 3.29787C13.8722 3.10595 13.7416 2.94499 13.5602 2.88261L8.16191 1.02701C8.05716 0.991 7.9435 0.990998 7.83875 1.027ZM4.22168 4.20315L7.89253 2.87768C7.96236 2.85197 8.03813 2.85197 8.10797 2.87769L11.7784 4.20312C11.8994 4.24768 11.9864 4.36265 12 4.49974C12.2785 7.29779 11.8149 10.7085 8.15313 12.8175C8.05857 12.872 7.94192 12.872 7.84736 12.8176C4.18512 10.7085 3.72135 7.29781 4.00003 4.49974C4.01368 4.36266 4.1007 4.2477 4.22168 4.20315Z" fill="#2CFFCC"/>
</svg>
