<svg width="36" height="37" viewBox="0 0 36 37" fill="none" xmlns="http://www.w3.org/2000/svg">
<g opacity="0.8">
<path fill-rule="evenodd" clip-rule="evenodd" d="M18.4728 0.337757C18.3183 -0.112585 17.6814 -0.112586 17.5269 0.337756L14.9972 7.71193C14.8892 8.02678 14.5095 8.15017 14.237 7.95893L7.85603 3.48003C7.46634 3.2065 6.95107 3.58086 7.09079 4.03601L9.37865 11.4888C9.47633 11.807 9.24164 12.13 8.90882 12.1354L1.11384 12.2626C0.637801 12.2703 0.440984 12.8761 0.821545 13.1622L7.05308 17.8468C7.31914 18.0468 7.31915 18.4461 7.05308 18.6461L0.821546 23.3308C0.440985 23.6169 0.637801 24.2226 1.11384 24.2304L8.90882 24.3575C9.24164 24.3629 9.47633 24.686 9.37865 25.0042L7.09079 32.4569C6.95107 32.9121 7.46634 33.2864 7.85603 33.0129L14.237 28.534C14.5095 28.3428 14.8892 28.4661 14.9972 28.781L17.5269 36.1552C17.6814 36.6055 18.3183 36.6055 18.4728 36.1552L21.0025 28.781C21.1105 28.4661 21.4903 28.3428 21.7627 28.534L28.1437 33.0129C28.5334 33.2864 29.0487 32.9121 28.909 32.4569L26.6211 25.0042C26.5234 24.686 26.7581 24.3629 27.091 24.3575L34.8859 24.2304C35.362 24.2226 35.5588 23.6169 35.1782 23.3308L28.9467 18.6461C28.6806 18.4461 28.6806 18.0468 28.9467 17.8468L35.1782 13.1622C35.5588 12.8761 35.362 12.2703 34.8859 12.2626L27.091 12.1354C26.7581 12.13 26.5234 11.807 26.6211 11.4888L28.909 4.03601C29.0487 3.58086 28.5334 3.2065 28.1437 3.48002L21.7627 7.95893C21.4903 8.15017 21.1105 8.02678 21.0025 7.71193L18.4728 0.337757ZM19.1737 16.1177C19.142 16.0039 19.2193 15.8928 19.3343 15.8661C20.7627 15.5344 21.9005 15.2095 22.893 14.8357C22.9958 14.7969 23.1134 14.8358 23.1599 14.9353C23.2644 15.1588 23.3221 15.4041 23.3221 15.6615C23.3221 16.7018 22.3795 17.5451 21.2168 17.5451C20.2299 17.5451 19.4016 16.9376 19.1737 16.1177ZM16.6598 15.8661C16.7748 15.8928 16.8521 16.0039 16.8205 16.1177C16.5925 16.9376 15.7642 17.5451 14.7773 17.5451C13.6146 17.5451 12.672 16.7018 12.672 15.6615C12.672 15.4041 12.7297 15.1588 12.8342 14.9353C12.8807 14.8358 12.9983 14.7969 13.1011 14.8357C14.0937 15.2095 15.2314 15.5344 16.6598 15.8661ZM13.2552 19.0975C13.2552 18.9518 13.3965 18.8502 13.5359 18.8927C14.7683 19.2687 16.4475 19.7295 17.9415 19.7295C19.6606 19.7295 20.9818 19.2172 22.2299 18.7333C22.2597 18.7217 22.2895 18.7102 22.3192 18.6986C22.4615 18.6435 22.6151 18.743 22.6179 18.8955C22.619 18.9598 22.6196 19.0271 22.6196 19.0975C22.6196 20.5242 20.5274 22.7516 17.9415 22.7516C15.3556 22.7516 13.2552 20.5242 13.2552 19.0975Z" fill="url(#paint0_linear_0_31)"/>
<circle cx="13.4758" cy="4.31587" r="0.832548" transform="rotate(-18 13.4758 4.31587)" fill="#A8AABE"/>
<circle cx="22.5239" cy="32.1655" r="0.832548" transform="rotate(-18 22.5239 32.1655)" fill="#555766"/>
<circle cx="6.15631" cy="9.63819" r="0.832548" transform="rotate(-54 6.15631 9.63819)" fill="#9294A7"/>
<circle cx="29.8443" cy="26.8472" r="0.832548" transform="rotate(-54 29.8443 26.8472)" fill="#696B7B"/>
<circle cx="3.36038" cy="18.2418" r="0.832548" transform="rotate(-90 3.36038 18.2418)" fill="#777989"/>
<circle cx="32.6404" cy="18.2418" r="0.832548" transform="rotate(-90 32.6404 18.2418)" fill="#87899A"/>
<circle cx="6.15635" cy="26.847" r="0.832548" transform="rotate(-126 6.15635 26.847)" fill="#5F6171"/>
<circle cx="29.8446" cy="9.63798" r="0.832548" transform="rotate(-126 29.8446 9.63798)" fill="#A4A6B9"/>
<circle cx="13.4767" cy="32.1698" r="0.832548" transform="rotate(-162 13.4767 32.1698)" fill="#515261"/>
<circle cx="22.5248" cy="4.32018" r="0.832548" transform="rotate(-162 22.5248 4.32018)" fill="#ADAFC3"/>
</g>
<defs>
<linearGradient id="paint0_linear_0_31" x1="19.4481" y1="-1.73776" x2="23.944" y2="37.4276" gradientUnits="userSpaceOnUse">
<stop stop-color="#DDDFEC"/>
<stop offset="1" stop-color="#414351"/>
</linearGradient>
</defs>
</svg>
