<svg width="36" height="36" viewBox="0 0 36 36" fill="none" xmlns="http://www.w3.org/2000/svg">
<g opacity="0.8">
<path d="M18 25.0714C21.9054 25.0714 25.0714 21.9054 25.0714 18C25.0714 16.5323 24.6243 15.169 23.8588 14.039L13.7112 23.6229C14.9008 24.5316 16.3874 25.0714 18 25.0714Z" fill="url(#paint0_linear_0_25)"/>
<path d="M22.57 12.6035L12.3512 22.2546C11.4581 21.0707 10.9286 19.5972 10.9286 18C10.9286 14.0946 14.0946 10.9286 18 10.9286C19.7423 10.9286 21.3375 11.5587 22.57 12.6035Z" fill="url(#paint1_linear_0_25)"/>
<path fill-rule="evenodd" clip-rule="evenodd" d="M35.7815 18.8126C36.0728 18.3098 36.0728 17.6902 35.7815 17.1874L27.597 3.06263C27.3057 2.55978 26.7672 2.25 26.1844 2.25H9.81557C9.23282 2.25 8.69433 2.55977 8.40296 3.06263L0.218532 17.1874C-0.0728442 17.6902 -0.0728441 18.3098 0.218532 18.8126L8.40296 32.9374C8.69433 33.4402 9.23282 33.75 9.81557 33.75H26.1844C26.7672 33.75 27.3057 33.4402 27.597 32.9374L35.7815 18.8126ZM18 27C22.9706 27 27 22.9706 27 18C27 13.0294 22.9706 9 18 9C13.0294 9 9 13.0294 9 18C9 22.9706 13.0294 27 18 27Z" fill="url(#paint2_linear_0_25)"/>
</g>
<defs>
<linearGradient id="paint0_linear_0_25" x1="19.5" y1="0.75" x2="22.7471" y2="34.6916" gradientUnits="userSpaceOnUse">
<stop stop-color="#DDDFEC"/>
<stop offset="1" stop-color="#414351"/>
</linearGradient>
<linearGradient id="paint1_linear_0_25" x1="19.5" y1="0.75" x2="22.7471" y2="34.6916" gradientUnits="userSpaceOnUse">
<stop stop-color="#DDDFEC"/>
<stop offset="1" stop-color="#414351"/>
</linearGradient>
<linearGradient id="paint2_linear_0_25" x1="19.5" y1="0.75" x2="22.7471" y2="34.6916" gradientUnits="userSpaceOnUse">
<stop stop-color="#DDDFEC"/>
<stop offset="1" stop-color="#414351"/>
</linearGradient>
</defs>
</svg>
