<svg width="14" height="14" viewBox="0 0 14 14" fill="none" xmlns="http://www.w3.org/2000/svg">
<path fill-rule="evenodd" clip-rule="evenodd" d="M1.00314 9.75314C0.832287 9.924 0.832287 10.201 1.00314 10.3719L3.62814 12.9969C3.799 13.1677 4.07601 13.1677 4.24686 12.9969C4.41771 12.826 4.41771 12.549 4.24686 12.3781L2.36872 10.5L12.67 10.5C12.9116 10.5 13.1075 10.3041 13.1075 10.0625C13.1075 9.82088 12.9116 9.625 12.67 9.625L2.36872 9.625L4.24686 7.74686C4.41771 7.576 4.41771 7.29899 4.24686 7.12814C4.076 6.95729 3.79899 6.95729 3.62814 7.12814L1.00314 9.75314ZM0.892495 3.9375C0.892495 4.17913 1.08837 4.375 1.33 4.375L11.6313 4.375L9.75314 6.25314C9.58229 6.42399 9.58229 6.701 9.75314 6.87186C9.924 7.04271 10.201 7.04271 10.3719 6.87186L12.9969 4.24686C13.1677 4.076 13.1677 3.79899 12.9969 3.62814L10.3719 1.00314C10.201 0.832286 9.924 0.832286 9.75314 1.00314C9.58229 1.17399 9.58229 1.451 9.75314 1.62186L11.6313 3.5L1.33 3.5C1.08837 3.5 0.892495 3.69588 0.892495 3.9375Z" fill="white" fill-opacity="0.7"/>
</svg>
