<svg width="20" height="20" viewBox="0 0 20 20" fill="none" xmlns="http://www.w3.org/2000/svg">
<path fill-rule="evenodd" clip-rule="evenodd" d="M10 1.25C10.3452 1.25 10.625 1.52982 10.625 1.875V9.375L18.125 9.375C18.4702 9.375 18.75 9.65482 18.75 10C18.75 10.3452 18.4702 10.625 18.125 10.625L10.625 10.625V18.125C10.625 18.4702 10.3452 18.75 10 18.75C9.65482 18.75 9.375 18.4702 9.375 18.125V10.625H1.875C1.52982 10.625 1.25 10.3452 1.25 10C1.25 9.65482 1.52982 9.375 1.875 9.375H9.375V1.875C9.375 1.52982 9.65482 1.25 10 1.25Z" fill="#9880FF"/>
</svg>
