<svg width="30" height="30" viewBox="0 0 30 30" fill="none" xmlns="http://www.w3.org/2000/svg">
<g clip-path="url(#clip0_0_207)">
<path d="M2.15625 5.59326C2.68655 3.37472 5.0334 2.11611 7.1748 2.90186L8.18457 3.27197C9.41051 3.72194 10.6976 3.97971 12 4.0376C13.3023 3.9797 14.5895 3.72192 15.8154 3.27197L16.8242 2.90186C18.9657 2.11585 21.3134 3.37458 21.8438 5.59326L23.9365 14.3472C24.2816 15.791 23.1866 17.1782 21.7021 17.1782C21.151 17.1782 20.6183 16.9798 20.2012 16.6196L16.4346 13.3677C15.6383 12.6803 14.6212 12.3022 13.5693 12.3022H10.4307C9.37881 12.3022 8.36167 12.6804 7.56543 13.3677L3.79883 16.6196C3.38172 16.9798 2.84891 17.1782 2.29785 17.1782C0.813371 17.1782 -0.281589 15.791 0.0634766 14.3472L2.15625 5.59326Z" fill="url(#paint0_linear_0_207)"/>
<circle cx="15.8359" cy="8.28618" r="0.98994" transform="rotate(-90 15.8359 8.28618)" fill="url(#paint1_linear_0_207)"/>
<circle cx="15.8359" cy="8.28618" r="0.98994" transform="rotate(-90 15.8359 8.28618)" fill="white" fill-opacity="0.7"/>
<circle cx="19.7956" cy="8.28618" r="0.98994" transform="rotate(-90 19.7956 8.28618)" fill="url(#paint2_linear_0_207)"/>
<circle cx="19.7956" cy="8.28618" r="0.98994" transform="rotate(-90 19.7956 8.28618)" fill="white" fill-opacity="0.7"/>
<ellipse cx="17.8156" cy="6.30635" rx="0.98994" ry="0.98994" fill="url(#paint3_linear_0_207)"/>
<ellipse cx="17.8156" cy="6.30635" rx="0.98994" ry="0.98994" fill="white" fill-opacity="0.7"/>
<ellipse cx="17.8156" cy="10.2661" rx="0.98994" ry="0.989939" fill="url(#paint4_linear_0_207)"/>
<ellipse cx="17.8156" cy="10.2661" rx="0.98994" ry="0.989939" fill="white" fill-opacity="0.7"/>
<path d="M5.47192 6.30674C5.47192 6.03337 5.69353 5.81177 5.96689 5.81177H6.46186C6.73523 5.81177 6.95683 6.03337 6.95683 6.30674V7.03178C6.95683 7.19727 6.87412 7.35182 6.73642 7.44362L6.35166 7.70013C6.26853 7.75555 6.16023 7.75555 6.0771 7.70013L5.69233 7.44362C5.55463 7.35182 5.47192 7.19727 5.47192 7.03178V6.30674Z" fill="url(#paint5_linear_0_207)"/>
<path d="M5.47192 6.30674C5.47192 6.03337 5.69353 5.81177 5.96689 5.81177H6.46186C6.73523 5.81177 6.95683 6.03337 6.95683 6.30674V7.03178C6.95683 7.19727 6.87412 7.35182 6.73642 7.44362L6.35166 7.70013C6.26853 7.75555 6.16023 7.75555 6.0771 7.70013L5.69233 7.44362C5.55463 7.35182 5.47192 7.19727 5.47192 7.03178V6.30674Z" fill="white" fill-opacity="0.7"/>
<path d="M5.47192 10.2665C5.47192 10.5399 5.69353 10.7615 5.96689 10.7615H6.46186C6.73523 10.7615 6.95683 10.5399 6.95683 10.2665V9.54146C6.95683 9.37596 6.87412 9.22142 6.73642 9.12962L6.35166 8.87311C6.26853 8.81769 6.16023 8.81769 6.0771 8.87311L5.69233 9.12962C5.55463 9.22142 5.47192 9.37596 5.47192 9.54146V10.2665Z" fill="url(#paint6_linear_0_207)"/>
<path d="M5.47192 10.2665C5.47192 10.5399 5.69353 10.7615 5.96689 10.7615H6.46186C6.73523 10.7615 6.95683 10.5399 6.95683 10.2665V9.54146C6.95683 9.37596 6.87412 9.22142 6.73642 9.12962L6.35166 8.87311C6.26853 8.81769 6.16023 8.81769 6.0771 8.87311L5.69233 9.12962C5.55463 9.22142 5.47192 9.37596 5.47192 9.54146V10.2665Z" fill="white" fill-opacity="0.7"/>
<path d="M4.23423 9.02861C3.96086 9.02861 3.73926 8.807 3.73926 8.53364V8.03867C3.73926 7.76531 3.96086 7.5437 4.23423 7.5437H4.95927C5.12476 7.5437 5.27931 7.62641 5.37111 7.76411L5.62762 8.14888C5.68304 8.23201 5.68304 8.34031 5.62762 8.42344L5.37111 8.8082C5.27931 8.9459 5.12476 9.02861 4.95927 9.02861H4.23423Z" fill="url(#paint7_linear_0_207)"/>
<path d="M4.23423 9.02861C3.96086 9.02861 3.73926 8.807 3.73926 8.53364V8.03867C3.73926 7.76531 3.96086 7.5437 4.23423 7.5437H4.95927C5.12476 7.5437 5.27931 7.62641 5.37111 7.76411L5.62762 8.14888C5.68304 8.23201 5.68304 8.34031 5.62762 8.42344L5.37111 8.8082C5.27931 8.9459 5.12476 9.02861 4.95927 9.02861H4.23423Z" fill="white" fill-opacity="0.7"/>
<path d="M8.19374 9.02861C8.46711 9.02861 8.68871 8.80701 8.68871 8.53364V8.03867C8.68871 7.76531 8.46711 7.5437 8.19374 7.5437H7.4687C7.30321 7.5437 7.14866 7.62641 7.05686 7.76411L6.80035 8.14888C6.74493 8.23201 6.74493 8.34031 6.80035 8.42344L7.05686 8.8082C7.14866 8.9459 7.30321 9.02861 7.4687 9.02861H8.19374Z" fill="url(#paint8_linear_0_207)"/>
<path d="M8.19374 9.02861C8.46711 9.02861 8.68871 8.80701 8.68871 8.53364V8.03867C8.68871 7.76531 8.46711 7.5437 8.19374 7.5437H7.4687C7.30321 7.5437 7.14866 7.62641 7.05686 7.76411L6.80035 8.14888C6.74493 8.23201 6.74493 8.34031 6.80035 8.42344L7.05686 8.8082C7.14866 8.9459 7.30321 9.02861 7.4687 9.02861H8.19374Z" fill="white" fill-opacity="0.7"/>
</g>
<rect x="10" y="15" width="20" height="13.3333" rx="2.75862" fill="#2CFFCC"/>
<path d="M18.4485 25.6468C18.4101 25.7875 18.4742 25.9361 18.6029 26.0047C18.7316 26.0734 18.8906 26.0439 18.9862 25.9337L23.0487 21.2462C23.1288 21.1537 23.1476 21.023 23.0968 20.9117C23.0459 20.8004 22.9349 20.729 22.8125 20.729H20.7216L21.5515 17.6862C21.5899 17.5455 21.5258 17.397 21.3971 17.3283C21.2684 17.2597 21.1094 17.2891 21.0139 17.3994L16.9514 22.0869C16.8712 22.1793 16.8524 22.31 16.9032 22.4213C16.9541 22.5326 17.0652 22.604 17.1875 22.604H19.2784L18.4485 25.6468Z" fill="#1C1B24"/>
<defs>
<linearGradient id="paint0_linear_0_207" x1="17.5384" y1="-4.99235" x2="25.5474" y2="16.7038" gradientUnits="userSpaceOnUse">
<stop stop-color="#EEBEFF"/>
<stop offset="1" stop-color="#6D4AFF"/>
</linearGradient>
<linearGradient id="paint1_linear_0_207" x1="16.2928" y1="6.25136" x2="17.7886" y2="8.70154" gradientUnits="userSpaceOnUse">
<stop stop-color="#EEBEFF"/>
<stop offset="1" stop-color="#6D4AFF"/>
</linearGradient>
<linearGradient id="paint2_linear_0_207" x1="20.2525" y1="6.25136" x2="21.7483" y2="8.70154" gradientUnits="userSpaceOnUse">
<stop stop-color="#EEBEFF"/>
<stop offset="1" stop-color="#6D4AFF"/>
</linearGradient>
<linearGradient id="paint3_linear_0_207" x1="18.2725" y1="4.27152" x2="19.7683" y2="6.7217" gradientUnits="userSpaceOnUse">
<stop stop-color="#EEBEFF"/>
<stop offset="1" stop-color="#6D4AFF"/>
</linearGradient>
<linearGradient id="paint4_linear_0_207" x1="18.2725" y1="8.23124" x2="19.7683" y2="10.6814" gradientUnits="userSpaceOnUse">
<stop stop-color="#EEBEFF"/>
<stop offset="1" stop-color="#6D4AFF"/>
</linearGradient>
<linearGradient id="paint5_linear_0_207" x1="6.36512" y1="5.69163" x2="7.65301" y2="7.25876" gradientUnits="userSpaceOnUse">
<stop stop-color="#EEBEFF"/>
<stop offset="1" stop-color="#6D4AFF"/>
</linearGradient>
<linearGradient id="paint6_linear_0_207" x1="6.36512" y1="8.31727" x2="7.65301" y2="9.88441" gradientUnits="userSpaceOnUse">
<stop stop-color="#6D4AFF"/>
<stop offset="1" stop-color="#EEBEFF"/>
</linearGradient>
<linearGradient id="paint7_linear_0_207" x1="6.36481" y1="8.31657" x2="4.25866" y2="9.38149" gradientUnits="userSpaceOnUse">
<stop stop-color="#6D4AFF"/>
<stop offset="1" stop-color="#EEBEFF"/>
</linearGradient>
<linearGradient id="paint8_linear_0_207" x1="8.61514" y1="8.31657" x2="6.82287" y2="9.22278" gradientUnits="userSpaceOnUse">
<stop stop-color="#EEBEFF"/>
<stop offset="1" stop-color="#6D4AFF"/>
</linearGradient>
<clipPath id="clip0_0_207">
<rect width="24" height="16" fill="white" transform="translate(0 2)"/>
</clipPath>
</defs>
</svg>
