<svg width="32" height="32" viewBox="0 0 32 32" fill="none" xmlns="http://www.w3.org/2000/svg"><g id="VPN feature">
<g id="Inner group">
<g id="Vector 15 (Stroke)">
<path fill-rule="evenodd" clip-rule="evenodd" d="M1.34572 7.04137C1.986 6.57623 2.84667 6.62857 3.26809 7.15829L13.4504 19.9573C13.8718 20.4871 13.6944 21.2936 13.0542 21.7587C12.4139 22.2238 11.5532 22.1715 11.1318 21.6418L0.949438 8.84272C0.528019 8.31301 0.70544 7.50651 1.34572 7.04137Z" fill="url(#paint0_linear_19363_13449)"/>
<path fill-rule="evenodd" clip-rule="evenodd" d="M1.34572 7.04137C1.986 6.57623 2.84667 6.62857 3.26809 7.15829L13.4504 19.9573C13.8718 20.4871 13.6944 21.2936 13.0542 21.7587C12.4139 22.2238 11.5532 22.1715 11.1318 21.6418L0.949438 8.84272C0.528019 8.31301 0.70544 7.50651 1.34572 7.04137Z" fill="url(#paint1_linear_19363_13449)"/>
</g>
<g id="Vector 16 (Stroke)">
<path fill-rule="evenodd" clip-rule="evenodd" d="M30.6543 7.04088C30.014 6.57574 29.1533 6.62808 28.7319 7.1578L18.5496 19.9569C18.1282 20.4866 18.3056 21.2931 18.9459 21.7582C19.5861 22.2234 20.4468 22.171 20.8682 21.6413L31.0506 8.84224C31.472 8.31252 31.2946 7.50602 30.6543 7.04088Z" fill="url(#paint2_linear_19363_13449)"/>
<path fill-rule="evenodd" clip-rule="evenodd" d="M30.6543 7.04088C30.014 6.57574 29.1533 6.62808 28.7319 7.1578L18.5496 19.9569C18.1282 20.4866 18.3056 21.2931 18.9459 21.7582C19.5861 22.2234 20.4468 22.171 20.8682 21.6413L31.0506 8.84224C31.472 8.31252 31.2946 7.50602 30.6543 7.04088Z" fill="url(#paint3_linear_19363_13449)"/>
</g>
<g id="Rectangle 2911" filter="url(#filter0_i_19363_13449)">
<path d="M2.66602 28H6.66602V29.3867C6.66602 30.0936 6.09294 30.6667 5.38602 30.6667H3.94602C3.23909 30.6667 2.66602 30.0936 2.66602 29.3867V28Z" fill="#46979A"/>
</g>
<g id="Rectangle 2912" filter="url(#filter1_i_19363_13449)">
<path d="M25.333 28H29.333V29.3867C29.333 30.0936 28.7599 30.6667 28.053 30.6667H26.613C25.9061 30.6667 25.333 30.0936 25.333 29.3867V28Z" fill="#46979A"/>
</g>
<g id="Rectangle 2906" filter="url(#filter2_i_19363_13449)">
<path d="M0 17.9199C0 16.506 1.14615 15.3599 2.56 15.3599H29.44C30.8538 15.3599 32 16.506 32 17.9199V25.5999C32 27.0137 30.8538 28.1599 29.44 28.1599H2.56C1.14615 28.1599 0 27.0137 0 25.5999V17.9199Z" fill="#585366"/>
<path d="M0 17.9199C0 16.506 1.14615 15.3599 2.56 15.3599H29.44C30.8538 15.3599 32 16.506 32 17.9199V25.5999C32 27.0137 30.8538 28.1599 29.44 28.1599H2.56C1.14615 28.1599 0 27.0137 0 25.5999V17.9199Z" fill="#33DCCE" fill-opacity="0.5"/>
</g>
<g id="Union" filter="url(#filter3_i_19363_13449)">
<path d="M13.4402 17.9204C12.7332 17.9204 12.1602 18.4935 12.1602 19.2004V22.4004C12.1602 23.1073 12.7332 23.6804 13.4402 23.6804H14.0801V24.3205C14.0801 25.0274 14.6532 25.6005 15.3601 25.6005H16.6401C17.347 25.6005 17.9201 25.0274 17.9201 24.3205V23.6804H18.5602C19.2671 23.6804 19.8402 23.1073 19.8402 22.4004V19.2004C19.8402 18.4935 19.2671 17.9204 18.5602 17.9204H13.4402Z" fill="url(#paint4_linear_19363_13449)"/>
</g>
<g id="Union_2" filter="url(#filter4_i_19363_13449)">
<path d="M23.0398 17.9204C22.3328 17.9204 21.7598 18.4935 21.7598 19.2004V22.4004C21.7598 23.1073 22.3328 23.6804 23.0398 23.6804H23.6797V24.3205C23.6797 25.0274 24.2528 25.6005 24.9597 25.6005H26.2397C26.9466 25.6005 27.5197 25.0274 27.5197 24.3205V23.6804H28.1598C28.8667 23.6804 29.4398 23.1073 29.4398 22.4004V19.2004C29.4398 18.4935 28.8667 17.9204 28.1598 17.9204H23.0398Z" fill="url(#paint5_linear_19363_13449)"/>
</g>
<g id="Union_3" filter="url(#filter5_i_19363_13449)">
<path d="M3.83957 17.9204C3.13265 17.9204 2.55957 18.4935 2.55957 19.2004V22.4004C2.55957 23.1073 3.13265 23.6804 3.83957 23.6804H4.47949V24.3205C4.47949 25.0274 5.05257 25.6005 5.75949 25.6005H7.03949C7.74642 25.6005 8.31949 25.0274 8.31949 24.3205V23.6804H8.95957C9.6665 23.6804 10.2396 23.1073 10.2396 22.4004V19.2004C10.2396 18.4935 9.66649 17.9204 8.95957 17.9204H3.83957Z" fill="url(#paint6_linear_19363_13449)"/>
</g>
<g id="Union_4">
<path d="M19.566 0.0679085C19.2625 -0.126257 18.8848 0.119092 18.8848 0.510445L18.8848 2.43547L15.083 2.43547C14.7058 2.43547 14.4 2.77777 14.4 3.20001C14.4 3.62225 14.7058 3.96455 15.083 3.96455L18.8848 3.96455L18.8848 5.88956C18.8848 6.28091 19.2625 6.52626 19.566 6.33209L23.7706 3.64254C24.0765 3.44687 24.0765 2.95313 23.7706 2.75746L19.566 0.0679085Z" fill="url(#paint7_linear_19363_13449)"/>
<path d="M19.566 0.0679085C19.2625 -0.126257 18.8848 0.119092 18.8848 0.510445L18.8848 2.43547L15.083 2.43547C14.7058 2.43547 14.4 2.77777 14.4 3.20001C14.4 3.62225 14.7058 3.96455 15.083 3.96455L18.8848 3.96455L18.8848 5.88956C18.8848 6.28091 19.2625 6.52626 19.566 6.33209L23.7706 3.64254C24.0765 3.44687 24.0765 2.95313 23.7706 2.75746L19.566 0.0679085Z" fill="url(#paint8_linear_19363_13449)"/>
</g>
<g id="Union_5">
<path d="M11.695 9.53219C11.9479 9.72635 12.2627 9.48101 12.2627 9.08965L12.2627 7.16462L15.4309 7.16462C15.7452 7.16462 16 6.82233 16 6.40009C16 5.97784 15.7452 5.63555 15.4309 5.63555L12.2627 5.63555L12.2627 3.71054C12.2627 3.31919 11.9479 3.07384 11.695 3.26801L8.19118 5.95756C7.93627 6.15323 7.93627 6.64697 8.19118 6.84263L11.695 9.53219Z" fill="url(#paint9_linear_19363_13449)"/>
<path d="M11.695 9.53219C11.9479 9.72635 12.2627 9.48101 12.2627 9.08965L12.2627 7.16462L15.4309 7.16462C15.7452 7.16462 16 6.82233 16 6.40009C16 5.97784 15.7452 5.63555 15.4309 5.63555L12.2627 5.63555L12.2627 3.71054C12.2627 3.31919 11.9479 3.07384 11.695 3.26801L8.19118 5.95756C7.93627 6.15323 7.93627 6.64697 8.19118 6.84263L11.695 9.53219Z" fill="url(#paint10_linear_19363_13449)"/>
</g>
</g>
</g>
<defs>
<filter id="filter0_i_19363_13449" x="2.66602" y="28" width="4" height="2.93317" filterUnits="userSpaceOnUse" color-interpolation-filters="sRGB">
<feFlood flood-opacity="0" result="BackgroundImageFix"/>
<feBlend mode="normal" in="SourceGraphic" in2="BackgroundImageFix" result="shape"/>
<feColorMatrix in="SourceAlpha" type="matrix" values="0 0 0 0 0 0 0 0 0 0 0 0 0 0 0 0 0 0 127 0" result="hardAlpha"/>
<feOffset dy="0.266667"/>
<feGaussianBlur stdDeviation="0.333333"/>
<feComposite in2="hardAlpha" operator="arithmetic" k2="-1" k3="1"/>
<feColorMatrix type="matrix" values="0 0 0 0 0 0 0 0 0 0 0 0 0 0 0 0 0 0 0.75 0"/>
<feBlend mode="normal" in2="shape" result="effect1_innerShadow_19363_13449"/>
</filter>
<filter id="filter1_i_19363_13449" x="25.333" y="28" width="4" height="2.93317" filterUnits="userSpaceOnUse" color-interpolation-filters="sRGB">
<feFlood flood-opacity="0" result="BackgroundImageFix"/>
<feBlend mode="normal" in="SourceGraphic" in2="BackgroundImageFix" result="shape"/>
<feColorMatrix in="SourceAlpha" type="matrix" values="0 0 0 0 0 0 0 0 0 0 0 0 0 0 0 0 0 0 127 0" result="hardAlpha"/>
<feOffset dy="0.266667"/>
<feGaussianBlur stdDeviation="0.333333"/>
<feComposite in2="hardAlpha" operator="arithmetic" k2="-1" k3="1"/>
<feColorMatrix type="matrix" values="0 0 0 0 0 0 0 0 0 0 0 0 0 0 0 0 0 0 0.75 0"/>
<feBlend mode="normal" in2="shape" result="effect1_innerShadow_19363_13449"/>
</filter>
<filter id="filter2_i_19363_13449" x="0" y="15.3599" width="32" height="13.2998" filterUnits="userSpaceOnUse" color-interpolation-filters="sRGB">
<feFlood flood-opacity="0" result="BackgroundImageFix"/>
<feBlend mode="normal" in="SourceGraphic" in2="BackgroundImageFix" result="shape"/>
<feColorMatrix in="SourceAlpha" type="matrix" values="0 0 0 0 0 0 0 0 0 0 0 0 0 0 0 0 0 0 127 0" result="hardAlpha"/>
<feOffset dy="0.5"/>
<feGaussianBlur stdDeviation="0.25"/>
<feComposite in2="hardAlpha" operator="arithmetic" k2="-1" k3="1"/>
<feColorMatrix type="matrix" values="0 0 0 0 1 0 0 0 0 1 0 0 0 0 1 0 0 0 0.6 0"/>
<feBlend mode="normal" in2="shape" result="effect1_innerShadow_19363_13449"/>
</filter>
<filter id="filter3_i_19363_13449" x="11.4935" y="17.9204" width="8.34635" height="8.34684" filterUnits="userSpaceOnUse" color-interpolation-filters="sRGB">
<feFlood flood-opacity="0" result="BackgroundImageFix"/>
<feBlend mode="normal" in="SourceGraphic" in2="BackgroundImageFix" result="shape"/>
<feColorMatrix in="SourceAlpha" type="matrix" values="0 0 0 0 0 0 0 0 0 0 0 0 0 0 0 0 0 0 127 0" result="hardAlpha"/>
<feOffset dx="-0.666667" dy="0.666667"/>
<feGaussianBlur stdDeviation="0.333333"/>
<feComposite in2="hardAlpha" operator="arithmetic" k2="-1" k3="1"/>
<feColorMatrix type="matrix" values="0 0 0 0 0 0 0 0 0 0 0 0 0 0 0 0 0 0 0.5 0"/>
<feBlend mode="normal" in2="shape" result="effect1_innerShadow_19363_13449"/>
</filter>
<filter id="filter4_i_19363_13449" x="21.0931" y="17.9204" width="8.34635" height="8.34684" filterUnits="userSpaceOnUse" color-interpolation-filters="sRGB">
<feFlood flood-opacity="0" result="BackgroundImageFix"/>
<feBlend mode="normal" in="SourceGraphic" in2="BackgroundImageFix" result="shape"/>
<feColorMatrix in="SourceAlpha" type="matrix" values="0 0 0 0 0 0 0 0 0 0 0 0 0 0 0 0 0 0 127 0" result="hardAlpha"/>
<feOffset dx="-0.666667" dy="0.666667"/>
<feGaussianBlur stdDeviation="0.333333"/>
<feComposite in2="hardAlpha" operator="arithmetic" k2="-1" k3="1"/>
<feColorMatrix type="matrix" values="0 0 0 0 0 0 0 0 0 0 0 0 0 0 0 0 0 0 0.5 0"/>
<feBlend mode="normal" in2="shape" result="effect1_innerShadow_19363_13449"/>
</filter>
<filter id="filter5_i_19363_13449" x="1.8929" y="17.9204" width="8.34635" height="8.34684" filterUnits="userSpaceOnUse" color-interpolation-filters="sRGB">
<feFlood flood-opacity="0" result="BackgroundImageFix"/>
<feBlend mode="normal" in="SourceGraphic" in2="BackgroundImageFix" result="shape"/>
<feColorMatrix in="SourceAlpha" type="matrix" values="0 0 0 0 0 0 0 0 0 0 0 0 0 0 0 0 0 0 127 0" result="hardAlpha"/>
<feOffset dx="-0.666667" dy="0.666667"/>
<feGaussianBlur stdDeviation="0.333333"/>
<feComposite in2="hardAlpha" operator="arithmetic" k2="-1" k3="1"/>
<feColorMatrix type="matrix" values="0 0 0 0 0 0 0 0 0 0 0 0 0 0 0 0 0 0 0.5 0"/>
<feBlend mode="normal" in2="shape" result="effect1_innerShadow_19363_13449"/>
</filter>
<linearGradient id="paint0_linear_19363_13449" x1="2.12176" y1="8.79886" x2="14.9056" y2="13.4371" gradientUnits="userSpaceOnUse">
<stop stop-color="#43414B"/>
<stop offset="1" stop-color="#A39FB5"/>
</linearGradient>
<linearGradient id="paint1_linear_19363_13449" x1="12.8568" y1="21.5106" x2="2.82926" y2="22.3661" gradientUnits="userSpaceOnUse">
<stop stop-color="#8A6EFF"/>
<stop offset="1" stop-color="#25ECC6"/>
</linearGradient>
<linearGradient id="paint2_linear_19363_13449" x1="29.8782" y1="8.79837" x2="17.0944" y2="13.4366" gradientUnits="userSpaceOnUse">
<stop stop-color="#43414B"/>
<stop offset="1" stop-color="#A39FB5"/>
</linearGradient>
<linearGradient id="paint3_linear_19363_13449" x1="19.1432" y1="21.5101" x2="29.1707" y2="22.3656" gradientUnits="userSpaceOnUse">
<stop stop-color="#8A6EFF"/>
<stop offset="1" stop-color="#25ECC6"/>
</linearGradient>
<linearGradient id="paint4_linear_19363_13449" x1="19.6003" y1="18.0011" x2="13.9343" y2="26.0398" gradientUnits="userSpaceOnUse">
<stop offset="0.00514267" stop-color="#6898EC"/>
<stop offset="0.567708" stop-color="#25ECC6"/>
<stop offset="1" stop-color="white"/>
</linearGradient>
<linearGradient id="paint5_linear_19363_13449" x1="29.1999" y1="18.0011" x2="23.5339" y2="26.0398" gradientUnits="userSpaceOnUse">
<stop offset="0.00514267" stop-color="#6898EC"/>
<stop offset="0.567708" stop-color="#25ECC6"/>
<stop offset="1" stop-color="white"/>
</linearGradient>
<linearGradient id="paint6_linear_19363_13449" x1="9.99967" y1="18.0011" x2="4.33368" y2="26.0398" gradientUnits="userSpaceOnUse">
<stop offset="0.00514267" stop-color="#6898EC"/>
<stop offset="0.567708" stop-color="#25ECC6"/>
<stop offset="1" stop-color="white"/>
</linearGradient>
<linearGradient id="paint7_linear_19363_13449" x1="12.664" y1="2.54187" x2="19.5655" y2="7.29108" gradientUnits="userSpaceOnUse">
<stop stop-color="#817D8F"/>
<stop offset="1" stop-color="#C9C6D8"/>
</linearGradient>
<linearGradient id="paint8_linear_19363_13449" x1="10.7104" y1="3.5" x2="24.799" y2="3.42069" gradientUnits="userSpaceOnUse">
<stop offset="0.00514267" stop-color="#6898EC"/>
<stop offset="0.140625" stop-color="#41CAD6"/>
<stop offset="0.651042" stop-color="#25ECC6"/>
<stop offset="1" stop-color="white"/>
</linearGradient>
<linearGradient id="paint9_linear_19363_13449" x1="17.4467" y1="7.05823" x2="11.0692" y2="3.40106" gradientUnits="userSpaceOnUse">
<stop stop-color="#817D8F"/>
<stop offset="1" stop-color="#C9C6D8"/>
</linearGradient>
<linearGradient id="paint10_linear_19363_13449" x1="19.0746" y1="6.1001" x2="7.33401" y2="6.15517" gradientUnits="userSpaceOnUse">
<stop offset="0.00514267" stop-color="#6898EC"/>
<stop offset="0.140625" stop-color="#41CAD6"/>
<stop offset="0.651042" stop-color="#25ECC6"/>
<stop offset="1" stop-color="white"/>
</linearGradient>
</defs>
</svg>
