<svg width="36" height="24" viewBox="0 0 36 24" fill="none" xmlns="http://www.w3.org/2000/svg">
<g id="Section 2">
<g id="Privacy and security" clip-path="url(#clip0_19363_13449)">
<path id="Union" d="M16.4873 0.416016C17.4643 0.0808025 18.5357 0.0808023 19.5127 0.416016L28.3428 3.44629C28.6431 3.54935 28.8349 3.81517 28.835 4.10352V13.8359C28.835 16.6197 27.2236 19.1868 24.625 20.5244L18.3633 23.748C18.1372 23.8643 17.8628 23.8643 17.6367 23.748L11.375 20.5244C8.77636 19.1868 7.16504 16.6197 7.16504 13.8359V4.10352C7.16509 3.81517 7.3569 3.54935 7.65723 3.44629L16.4873 0.416016Z" fill="url(#paint0_linear_19363_13449)" stroke="url(#paint1_linear_19363_13449)" stroke-width="0.329911"/>
<path id="Union_2" d="M19.5663 0.260411C18.5545 -0.086804 17.4455 -0.0868036 16.4337 0.260412L7.6034 3.29065C7.24115 3.41496 7 3.73986 7 4.10362V13.8364C7 16.6854 8.64907 19.307 11.2995 20.6712L17.5611 23.8944C17.8347 24.0352 18.1653 24.0352 18.4389 23.8944L24.7005 20.6712C27.3509 19.307 29 16.6854 29 13.8364V4.10362C29 3.73986 28.7589 3.41496 28.3966 3.29065L19.5663 0.260411Z" fill="url(#paint2_linear_19363_13449)"/>
<path id="Union_3" d="M19.5663 0.260411C18.5545 -0.086804 17.4455 -0.0868036 16.4337 0.260412L7.6034 3.29065C7.24115 3.41496 7 3.73986 7 4.10362V13.8364C7 16.6854 8.64907 19.307 11.2995 20.6712L17.5611 23.8944C17.8347 24.0352 18.1653 24.0352 18.4389 23.8944L24.7005 20.6712C27.3509 19.307 29 16.6854 29 13.8364V4.10362C29 3.73986 28.7589 3.41496 28.3966 3.29065L19.5663 0.260411Z" fill="url(#paint3_linear_19363_13449)"/>
<g id="Intersect">
<path d="M18 0C17.4698 0 16.9396 0.0868039 16.4337 0.260412L7.6034 3.29065C7.24115 3.41496 7 3.73986 7 4.10362V12H18V0Z" fill="url(#paint4_linear_19363_13449)"/>
<path d="M18 0C17.4698 0 16.9396 0.0868039 16.4337 0.260412L7.6034 3.29065C7.24115 3.41496 7 3.73986 7 4.10362V12H18V0Z" fill="white" fill-opacity="0.5"/>
</g>
<g id="Intersect_2">
<path d="M29.0001 12H18.0001V24C17.9998 24 18.0004 24 18.0001 24C18.1508 23.9999 18.3025 23.9646 18.439 23.8944L24.7006 20.6712C27.351 19.307 29.0001 16.6854 29.0001 13.8364V12Z" fill="url(#paint5_linear_19363_13449)"/>
<path d="M29.0001 12H18.0001V24C17.9998 24 18.0004 24 18.0001 24C18.1508 23.9999 18.3025 23.9646 18.439 23.8944L24.7006 20.6712C27.351 19.307 29.0001 16.6854 29.0001 13.8364V12Z" fill="white" fill-opacity="0.5"/>
</g>
<path id="Icon" d="M3.01065 17.3313L2.38494 18.8956C2.29565 19.1188 2.11879 19.2957 1.89558 19.3849L0.331307 20.0106C-0.110437 20.1873 -0.110435 20.8127 0.331308 20.9894L1.89559 21.6151C2.11879 21.7043 2.29565 21.8812 2.38494 22.1044L3.01065 23.6687C3.18734 24.1104 3.81265 24.1104 3.98935 23.6687L4.61506 22.1044C4.70435 21.8812 4.88121 21.7043 5.10442 21.6151L6.66869 20.9894C7.11044 20.8127 7.11044 20.1873 6.66869 20.0106L5.10442 19.3849C4.88121 19.2957 4.70435 19.1188 4.61506 18.8956L3.98935 17.3313C3.81265 16.8896 3.18734 16.8896 3.01065 17.3313Z" fill="url(#paint6_linear_19363_13449)"/>
<path id="Icon_2" d="M33.1505 1.23665L32.7035 2.35399C32.6398 2.51342 32.5134 2.63975 32.354 2.70353L31.2366 3.15046C30.9211 3.27668 30.9211 3.72333 31.2366 3.84954L32.354 4.29647C32.5134 4.36025 32.6398 4.48658 32.7035 4.64601L33.1505 5.76335C33.2767 6.07888 33.7233 6.07888 33.8495 5.76335L34.2965 4.64601C34.3602 4.48658 34.4866 4.36025 34.646 4.29647L35.7634 3.84954C36.0789 3.72332 36.0789 3.27667 35.7634 3.15046L34.646 2.70353C34.4866 2.63975 34.3602 2.51342 34.2965 2.35399L33.8495 1.23665C33.7233 0.921117 33.2767 0.921118 33.1505 1.23665Z" fill="url(#paint7_linear_19363_13449)"/>
</g>
</g>
<defs>
<linearGradient id="paint0_linear_19363_13449" x1="23.0769" y1="-12.666" x2="41.8862" y2="15.5774" gradientUnits="userSpaceOnUse">
<stop stop-color="#EEBEFF"/>
<stop offset="1" stop-color="#6D4AFF"/>
</linearGradient>
<linearGradient id="paint1_linear_19363_13449" x1="16.3824" y1="-3.17647" x2="16.3824" y2="39.1579" gradientUnits="userSpaceOnUse">
<stop stop-color="#5D489C"/>
<stop offset="1" stop-color="#D6A9FF"/>
</linearGradient>
<linearGradient id="paint2_linear_19363_13449" x1="23.0769" y1="-12.666" x2="41.8862" y2="15.5774" gradientUnits="userSpaceOnUse">
<stop stop-color="#EEBEFF"/>
<stop offset="1" stop-color="#6D4AFF"/>
</linearGradient>
<linearGradient id="paint3_linear_19363_13449" x1="23.0769" y1="-12.666" x2="41.8862" y2="15.5774" gradientUnits="userSpaceOnUse">
<stop stop-color="#EEBEFF"/>
<stop offset="1" stop-color="#6D4AFF"/>
</linearGradient>
<linearGradient id="paint4_linear_19363_13449" x1="18" y1="14.5" x2="1.12338" y2="1.74497" gradientUnits="userSpaceOnUse">
<stop stop-color="#EEBEFF"/>
<stop offset="1" stop-color="#6D4AFF"/>
</linearGradient>
<linearGradient id="paint5_linear_19363_13449" x1="26.0385" y1="5.66699" x2="35.4431" y2="19.7887" gradientUnits="userSpaceOnUse">
<stop stop-color="#EEBEFF"/>
<stop offset="1" stop-color="#6D4AFF"/>
</linearGradient>
<linearGradient id="paint6_linear_19363_13449" x1="5.11538" y1="13.3057" x2="10.4038" y2="21.9685" gradientUnits="userSpaceOnUse">
<stop stop-color="#EEBEFF"/>
<stop offset="1" stop-color="#6D4AFF"/>
</linearGradient>
<linearGradient id="paint7_linear_19363_13449" x1="34.6538" y1="-1.63875" x2="38.4313" y2="4.54894" gradientUnits="userSpaceOnUse">
<stop stop-color="#EEBEFF"/>
<stop offset="1" stop-color="#6D4AFF"/>
</linearGradient>
<clipPath id="clip0_19363_13449">
<rect width="36" height="24" fill="white"/>
</clipPath>
</defs>
</svg>
