<svg width="30" height="30" viewBox="0 0 30 30" fill="none" xmlns="http://www.w3.org/2000/svg">
<g clip-path="url(#clip0_0_119)">
<path d="M7.93089 16.6061C7.64809 17.2659 8.13212 18 8.85003 18H15.1503C15.8682 18 16.3522 17.2659 16.0694 16.6061L14.9266 13.9394C14.769 13.5717 14.4075 13.3333 14.0074 13.3333H9.99289C9.59286 13.3333 9.23133 13.5717 9.07375 13.9394L7.93089 16.6061Z" fill="url(#paint0_linear_0_119)"/>
<rect x="0.666748" y="2.66675" width="22.6667" height="13.3333" rx="2" fill="url(#paint1_linear_0_119)"/>
<path d="M10 12.2123V6.45433C10 6.09089 10.4187 5.87506 10.7293 6.0784L15.1273 8.9574C15.402 9.13723 15.402 9.52944 15.1273 9.70927L10.7293 12.5883C10.4187 12.7916 10 12.5758 10 12.2123Z" fill="url(#paint2_linear_0_119)"/>
<path d="M10 12.2123V6.45433C10 6.09089 10.4187 5.87506 10.7293 6.0784L15.1273 8.9574C15.402 9.13723 15.402 9.52944 15.1273 9.70927L10.7293 12.5883C10.4187 12.7916 10 12.5758 10 12.2123Z" fill="white" fill-opacity="0.7"/>
</g>
<g clip-path="url(#clip1_0_119)">
<path d="M30 14.9966H10V28.3278H30V14.9966Z" fill="#F0F0F0"/>
<path d="M30 17.6667H10V19.3355H30V17.6667ZM30 20.998H10V22.6667H30V20.998ZM30 24.3355H10V26.0042H30V24.3355ZM30 27.6667H10V29.3355H30V27.6667Z" fill="#D80027"/>
<path d="M20 14.9966H10V22.1778H20V14.9966Z" fill="#2E52B2"/>
<path d="M14.5076 18.6342L14.3451 19.1279H13.8264L14.2451 19.4342L14.0826 19.9279L14.5076 19.6217L14.9264 19.9279L14.7701 19.4342L15.1889 19.1279H14.6701L14.5076 18.6342ZM14.6701 20.9154L14.5076 20.4217L14.3451 20.9154H13.8264L14.2451 21.2217L14.0826 21.7154L14.5076 21.4154L14.9264 21.7154L14.7701 21.2217L15.1889 20.9154H14.6701ZM12.4639 20.9154L12.3014 20.4217L12.1451 20.9154H11.6201L12.0451 21.2217L11.8826 21.7154L12.3014 21.4154L12.7264 21.7154L12.5639 21.2217L12.9889 20.9154H12.4639ZM12.3014 18.6342L12.1451 19.1279H11.6201L12.0451 19.4342L11.8826 19.9279L12.3014 19.6217L12.7264 19.9279L12.5639 19.4342L12.9889 19.1279H12.4639L12.3014 18.6342ZM14.5076 16.8467L14.3451 17.3404H13.8264L14.2451 17.6467L14.0826 18.1404L14.5076 17.8342L14.9264 18.1404L14.7701 17.6467L15.1889 17.3404H14.6701L14.5076 16.8467ZM12.3014 16.8467L12.1451 17.3404H11.6201L12.0451 17.6467L11.8826 18.1404L12.3014 17.8342L12.7264 18.1404L12.5639 17.6467L12.9889 17.3404H12.4639L12.3014 16.8467ZM16.7076 18.6342L16.5451 19.1279H16.0264L16.4451 19.4342L16.2889 19.9279L16.7076 19.6217L17.1264 19.9279L16.9701 19.4342L17.3889 19.1279H16.8701L16.7076 18.6342ZM16.8701 20.9154L16.7076 20.4217L16.5451 20.9154H16.0264L16.4451 21.2217L16.2889 21.7154L16.7076 21.4154L17.1264 21.7154L16.9701 21.2217L17.3889 20.9154H16.8701ZM19.0701 20.9154L18.9076 20.4217L18.7514 20.9154H18.2264L18.6514 21.2217L18.4889 21.7154L18.9076 21.4154L19.3326 21.7154L19.1701 21.2217L19.5889 20.9154H19.0701ZM18.9076 18.6342L18.7514 19.1279H18.2264L18.6514 19.4342L18.4889 19.9279L18.9076 19.6217L19.3326 19.9279L19.1701 19.4342L19.5889 19.1279H19.0701L18.9076 18.6342ZM16.7076 16.8467L16.5451 17.3404H16.0264L16.4451 17.6467L16.2889 18.1404L16.7076 17.8342L17.1264 18.1404L16.9701 17.6467L17.3889 17.3404H16.8701L16.7076 16.8467ZM18.9076 16.8467L18.7514 17.3404H18.2264L18.6514 17.6467L18.4889 18.1404L18.9076 17.8342L19.3326 18.1404L19.1701 17.6467L19.5889 17.3404H19.0701L18.9076 16.8467Z" fill="#F0F0F0"/>
</g>
<defs>
<linearGradient id="paint0_linear_0_119" x1="13.6668" y1="24.2222" x2="17.8438" y2="14.3572" gradientUnits="userSpaceOnUse">
<stop stop-color="#EEBEFF"/>
<stop offset="1" stop-color="#352188"/>
</linearGradient>
<linearGradient id="paint1_linear_0_119" x1="17.2309" y1="-4.36993" x2="24.4354" y2="15.6928" gradientUnits="userSpaceOnUse">
<stop stop-color="#EEBEFF"/>
<stop offset="1" stop-color="#6D4AFF"/>
</linearGradient>
<linearGradient id="paint2_linear_0_119" x1="13.8974" y1="2.48166" x2="19.3591" y2="9.63889" gradientUnits="userSpaceOnUse">
<stop stop-color="#EEBEFF"/>
<stop offset="1" stop-color="#6D4AFF"/>
</linearGradient>
<clipPath id="clip0_0_119">
<rect width="24" height="16" fill="white" transform="translate(0 2)"/>
</clipPath>
<clipPath id="clip1_0_119">
<rect x="10" y="15" width="20" height="13.3333" rx="4.26667" fill="white"/>
</clipPath>
</defs>
</svg>
