<svg width="30" height="30" viewBox="0 0 30 30" fill="none" xmlns="http://www.w3.org/2000/svg">
<g clip-path="url(#clip0_0_88)">
<path fill-rule="evenodd" clip-rule="evenodd" d="M15.5708 2.21946C17.0826 1.56723 18.8184 2.42731 19.2152 4.02524L20.5345 9.33765H21.9999C22.3681 9.33765 22.6666 9.63612 22.6666 10.0043C22.6666 10.3725 22.3681 10.671 21.9999 10.671H1.99992C1.63173 10.671 1.33325 10.3725 1.33325 10.0043C1.33325 9.63612 1.63173 9.33765 1.99992 9.33765H3.46529L4.7846 4.02525C5.18144 2.42731 6.91723 1.56723 8.42901 2.21946L9.87431 2.84301C10.38 3.06116 13.6199 3.06116 14.1255 2.84301L15.5708 2.21946Z" fill="url(#paint0_linear_0_88)"/>
<path fill-rule="evenodd" clip-rule="evenodd" d="M10.0954 12.8045C9.49613 11.9194 8.48262 11.3376 7.33325 11.3376C5.4923 11.3376 3.99992 12.83 3.99992 14.671C3.99992 16.5119 5.4923 18.0043 7.33325 18.0043C9.1742 18.0043 10.6666 16.5119 10.6666 14.671C10.6666 13.9346 11.2635 13.3376 11.9999 13.3376C12.7363 13.3376 13.3333 13.9346 13.3333 14.671C13.3333 16.5119 14.8256 18.0043 16.6666 18.0043C18.5075 18.0043 19.9999 16.5119 19.9999 14.671C19.9999 12.83 18.5075 11.3376 16.6666 11.3376C15.5172 11.3376 14.5037 11.9194 13.9044 12.8045C13.4205 12.3107 12.746 12.0043 11.9999 12.0043C11.2539 12.0043 10.5794 12.3107 10.0954 12.8045ZM9.33325 14.671C9.33325 15.7756 8.43782 16.671 7.33325 16.671C6.22868 16.671 5.33325 15.7756 5.33325 14.671C5.33325 13.5664 6.22868 12.671 7.33325 12.671C8.43782 12.671 9.33325 13.5664 9.33325 14.671ZM14.6666 14.671C14.6666 15.7756 15.562 16.671 16.6666 16.671C17.7712 16.671 18.6666 15.7756 18.6666 14.671C18.6666 13.5664 17.7712 12.671 16.6666 12.671C15.562 12.671 14.6666 13.5664 14.6666 14.671Z" fill="url(#paint1_linear_0_88)"/>
<g filter="url(#filter0_i_0_88)">
<path fill-rule="evenodd" clip-rule="evenodd" d="M10.0955 12.804C9.49621 11.9189 8.48271 11.3372 7.33333 11.3372C5.49238 11.3372 4 12.8295 4 14.6705C4 16.5114 5.49238 18.0038 7.33333 18.0038C9.17428 18.0038 10.6667 16.5114 10.6667 14.6705C10.6667 13.9341 11.2636 13.3372 12 13.3372C12.7364 13.3372 13.3333 13.9341 13.3333 14.6705C13.3333 16.5114 14.8257 18.0038 16.6667 18.0038C18.5076 18.0038 20 16.5114 20 14.6705C20 12.8295 18.5076 11.3372 16.6667 11.3372C15.5173 11.3372 14.5038 11.9189 13.9045 12.804C13.4205 12.3102 12.746 12.0038 12 12.0038C11.254 12.0038 10.5795 12.3102 10.0955 12.804ZM9.33333 14.6705C9.33333 15.7751 8.4379 16.6705 7.33333 16.6705C6.22876 16.6705 5.33333 15.7751 5.33333 14.6705C5.33333 13.5659 6.22876 12.6705 7.33333 12.6705C8.4379 12.6705 9.33333 13.5659 9.33333 14.6705ZM14.6667 14.6705C14.6667 15.7751 15.5621 16.6705 16.6667 16.6705C17.7712 16.6705 18.6667 15.7751 18.6667 14.6705C18.6667 13.5659 17.7712 12.6705 16.6667 12.6705C15.5621 12.6705 14.6667 13.5659 14.6667 14.6705Z" fill="url(#paint2_linear_0_88)"/>
</g>
<mask id="mask0_0_88" style="mask-type:alpha" maskUnits="userSpaceOnUse" x="3" y="2" width="18" height="8">
<path d="M15.5709 2.21946C17.0826 1.56723 18.8184 2.42731 19.2153 4.02524L20.5346 9.33765H3.46533L4.78464 4.02525C5.18148 2.42731 6.91727 1.56723 8.42905 2.21946L9.87435 2.84301C10.38 3.06116 13.6199 3.06116 14.1256 2.84301L15.5709 2.21946Z" fill="#D9D9D9"/>
</mask>
<g mask="url(#mask0_0_88)">
<rect opacity="0.5" x="2.75537" y="7.15552" width="18.4889" height="2.84444" fill="url(#paint3_linear_0_88)"/>
</g>
</g>
<rect x="10" y="15" width="20" height="13.3333" rx="2.75862" fill="#2CFFCC"/>
<path d="M18.4485 25.6468C18.4101 25.7875 18.4742 25.9361 18.6029 26.0047C18.7316 26.0734 18.8906 26.0439 18.9862 25.9337L23.0487 21.2462C23.1288 21.1537 23.1476 21.023 23.0968 20.9117C23.0459 20.8004 22.9349 20.729 22.8125 20.729H20.7216L21.5515 17.6862C21.5899 17.5455 21.5258 17.397 21.3971 17.3283C21.2684 17.2597 21.1094 17.2891 21.0139 17.3994L16.9514 22.0869C16.8712 22.1793 16.8524 22.31 16.9032 22.4213C16.9541 22.5326 17.0652 22.604 17.1875 22.604H19.2784L18.4485 25.6468Z" fill="#1C1B24"/>
<defs>
<filter id="filter0_i_0_88" x="4" y="11.3372" width="16" height="7.20008" filterUnits="userSpaceOnUse" color-interpolation-filters="sRGB">
<feFlood flood-opacity="0" result="BackgroundImageFix"/>
<feBlend mode="normal" in="SourceGraphic" in2="BackgroundImageFix" result="shape"/>
<feColorMatrix in="SourceAlpha" type="matrix" values="0 0 0 0 0 0 0 0 0 0 0 0 0 0 0 0 0 0 127 0" result="hardAlpha"/>
<feOffset dy="0.533333"/>
<feGaussianBlur stdDeviation="0.266667"/>
<feComposite in2="hardAlpha" operator="arithmetic" k2="-1" k3="1"/>
<feColorMatrix type="matrix" values="0 0 0 0 1 0 0 0 0 1 0 0 0 0 1 0 0 0 0.3 0"/>
<feBlend mode="normal" in2="shape" result="effect1_innerShadow_0_88"/>
</filter>
<linearGradient id="paint0_linear_0_88" x1="16.3076" y1="-6.44629" x2="27.4775" y2="14.8945" gradientUnits="userSpaceOnUse">
<stop stop-color="#EEBEFF"/>
<stop offset="1" stop-color="#6D4AFF"/>
</linearGradient>
<linearGradient id="paint1_linear_0_88" x1="16.3076" y1="-6.44629" x2="27.4775" y2="14.8945" gradientUnits="userSpaceOnUse">
<stop stop-color="#EEBEFF"/>
<stop offset="1" stop-color="#6D4AFF"/>
</linearGradient>
<linearGradient id="paint2_linear_0_88" x1="16.3077" y1="-6.44663" x2="27.4776" y2="14.8942" gradientUnits="userSpaceOnUse">
<stop stop-color="#EEBEFF"/>
<stop offset="1" stop-color="#6D4AFF"/>
</linearGradient>
<linearGradient id="paint3_linear_0_88" x1="11.9998" y1="7.15552" x2="11.9998" y2="9.99996" gradientUnits="userSpaceOnUse">
<stop stop-color="#1C1B24" stop-opacity="0"/>
<stop offset="1" stop-color="#1C1B24"/>
</linearGradient>
<clipPath id="clip0_0_88">
<rect width="24" height="16" fill="white" transform="translate(0 2)"/>
</clipPath>
</defs>
</svg>
