<svg width="30" height="30" viewBox="0 0 30 30" fill="none" xmlns="http://www.w3.org/2000/svg">
<g clip-path="url(#clip0_0_263)">
<path fill-rule="evenodd" clip-rule="evenodd" d="M8 8.33333V6.28797C8 3.91893 9.79006 2 12 2C14.2099 2 16 3.91893 16 6.28797V10H14.6971V6.28797C14.6971 4.58226 13.5691 3.37299 11.9779 3.37299C10.3867 3.37299 9.25868 4.58226 9.25868 6.28797V8.33333H8Z" fill="url(#paint0_linear_0_263)"/>
<path d="M17.0542 18H6.94581C6.4335 18 6 17.5825 6 17.0457V8.95427C6 8.43738 6.41379 8 6.94581 8H17.0542C17.5665 8 18 8.4175 18 8.95427V17.0457C18 17.5626 17.5862 18 17.0542 18Z" fill="url(#paint1_linear_0_263)"/>
<path d="M13.3334 11.945C13.3334 11.2349 12.7408 10.6667 12.0001 10.6667C11.2593 10.6667 10.6667 11.2349 10.6667 11.945C10.6667 12.432 10.9419 12.8378 11.3652 13.061L10.9645 14.7157C10.8883 15.0304 11.1267 15.3334 11.4504 15.3334H12.5497C12.8735 15.3334 13.1119 15.0304 13.0357 14.7157L12.635 13.061C13.0583 12.8581 13.3334 12.432 13.3334 11.945Z" fill="url(#paint2_linear_0_263)"/>
<path d="M13.3334 11.945C13.3334 11.2349 12.7408 10.6667 12.0001 10.6667C11.2593 10.6667 10.6667 11.2349 10.6667 11.945C10.6667 12.432 10.9419 12.8378 11.3652 13.061L10.9645 14.7157C10.8883 15.0304 11.1267 15.3334 11.4504 15.3334H12.5497C12.8735 15.3334 13.1119 15.0304 13.0357 14.7157L12.635 13.061C13.0583 12.8581 13.3334 12.432 13.3334 11.945Z" fill="white" fill-opacity="0.7"/>
<path d="M20.73 15.3334L19.7581 14.5523C20.067 14.1918 20.3889 13.8468 20.7236 13.5175C20.8566 13.384 20.9403 13.2994 20.9746 13.2638C20.8674 13.246 20.5605 13.1725 20.0542 13.0435C19.6894 12.95 19.4491 12.881 19.3333 12.8365L19.713 11.6615C20.2752 11.8974 20.7772 12.1578 21.2192 12.4426C21.1162 11.7171 21.0647 11.1252 21.0647 10.6667H22.2105C22.2105 10.9917 22.1526 11.5881 22.0367 12.456C22.1225 12.4204 22.307 12.3336 22.5903 12.1956C22.9765 12.0131 23.3326 11.8573 23.6588 11.7283L23.9999 12.9367C23.5236 13.0479 22.9722 13.157 22.3457 13.2638L23.1181 14.1651C23.2726 14.3476 23.3949 14.4967 23.485 14.6124L22.5001 15.2867L21.6312 13.7979C21.3694 14.2786 21.069 14.7904 20.73 15.3334Z" fill="url(#paint3_linear_0_263)"/>
<path d="M1.39678 15.3334L0.424828 14.5523C0.733793 14.1918 1.05563 13.8468 1.39034 13.5175C1.52337 13.384 1.60705 13.2994 1.64138 13.2638C1.5341 13.246 1.22728 13.1725 0.720919 13.0435C0.356169 12.95 0.115862 12.881 0 12.8365L0.37977 11.6615C0.941916 11.8974 1.44398 12.1578 1.88598 12.4426C1.78299 11.7171 1.73149 11.1252 1.73149 10.6667H2.87724C2.87724 10.9917 2.81931 11.5881 2.70345 12.456C2.78927 12.4204 2.97379 12.3336 3.25701 12.1956C3.64322 12.0131 3.99939 11.8573 4.32552 11.7283L4.66667 12.9367C4.19034 13.0479 3.63893 13.157 3.01241 13.2638L3.78483 14.1651C3.93931 14.3476 4.06161 14.4967 4.15172 14.6124L3.1669 15.2867L2.29793 13.7979C2.03617 14.2786 1.73579 14.7904 1.39678 15.3334Z" fill="url(#paint4_linear_0_263)"/>
</g>
<rect x="10" y="15" width="20" height="13.3333" rx="2.75862" fill="#2CFFCC"/>
<path d="M18.4485 25.6468C18.4101 25.7875 18.4742 25.9361 18.6029 26.0047C18.7316 26.0734 18.8906 26.0439 18.9862 25.9337L23.0487 21.2462C23.1288 21.1537 23.1476 21.023 23.0968 20.9117C23.0459 20.8004 22.9349 20.729 22.8125 20.729H20.7216L21.5515 17.6862C21.5899 17.5455 21.5258 17.397 21.3971 17.3283C21.2684 17.2597 21.1094 17.2891 21.0139 17.3994L16.9514 22.0869C16.8712 22.1793 16.8524 22.31 16.9032 22.4213C16.9541 22.5326 17.0652 22.604 17.1875 22.604H19.2784L18.4485 25.6468Z" fill="#1C1B24"/>
<defs>
<linearGradient id="paint0_linear_0_263" x1="12.4444" y1="2" x2="12.3333" y2="8" gradientUnits="userSpaceOnUse">
<stop stop-color="#D7AAFF"/>
<stop offset="1" stop-color="#583DA2"/>
</linearGradient>
<linearGradient id="paint1_linear_0_263" x1="18" y1="5.5" x2="12.647" y2="19.666" gradientUnits="userSpaceOnUse">
<stop stop-color="#EEBEFF"/>
<stop offset="1" stop-color="#6D4AFF"/>
</linearGradient>
<linearGradient id="paint2_linear_0_263" x1="12.6155" y1="8.20391" x2="16.5706" y2="11.906" gradientUnits="userSpaceOnUse">
<stop stop-color="#EEBEFF"/>
<stop offset="1" stop-color="#6D4AFF"/>
</linearGradient>
<linearGradient id="paint3_linear_0_263" x1="23.9999" y1="9.50008" x2="21.1585" y2="15.7664" gradientUnits="userSpaceOnUse">
<stop stop-color="#EEBEFF"/>
<stop offset="1" stop-color="#6D4AFF"/>
</linearGradient>
<linearGradient id="paint4_linear_0_263" x1="4.66667" y1="9.50008" x2="1.82523" y2="15.7664" gradientUnits="userSpaceOnUse">
<stop stop-color="#EEBEFF"/>
<stop offset="1" stop-color="#6D4AFF"/>
</linearGradient>
<clipPath id="clip0_0_263">
<rect width="24" height="16" fill="white" transform="translate(0 2)"/>
</clipPath>
</defs>
</svg>
