<svg width="30" height="30" viewBox="0 0 30 30" fill="none" xmlns="http://www.w3.org/2000/svg">
<g clip-path="url(#clip0_0_176)">
<path d="M20.7387 3.66007H9.90549L9.51467 2.40293C9.42971 2.16117 9.19181 2 8.91993 2H3.26148C2.92163 2 2.66675 2.25788 2.66675 2.5641V3.66007V6.3033V16H21.3334V4.24029C21.3334 3.91795 21.0785 3.66007 20.7387 3.66007Z" fill="url(#paint0_linear_0_176)"/>
<path d="M11.7695 5.33325H1.37669C0.932257 5.33325 0.607481 5.69641 0.675855 6.09115L2.52195 16.9069C2.55614 17.1596 2.79545 17.3333 3.06894 17.3333H11.7866H20.9316C21.2051 17.3333 21.4273 17.1596 21.4786 16.9069L23.3247 6.09115C23.393 5.69641 23.0512 5.33325 22.6238 5.33325H11.7695Z" fill="url(#paint1_linear_0_176)"/>
<mask id="mask0_0_176" style="mask-type:alpha" maskUnits="userSpaceOnUse" x="2" y="2" width="20" height="14">
<path d="M20.7387 3.66007H9.90549L9.51467 2.40293C9.42971 2.16117 9.19181 2 8.91993 2H3.26148C2.92163 2 2.66675 2.25788 2.66675 2.5641V3.66007V6.3033V16H21.3334V4.24029C21.3334 3.91795 21.0785 3.66007 20.7387 3.66007Z" fill="url(#paint2_linear_0_176)"/>
</mask>
<g mask="url(#mask0_0_176)">
<rect opacity="0.5" x="2" y="4" width="20" height="1.33333" fill="url(#paint3_linear_0_176)"/>
</g>
<path d="M12.0002 7C12.34 7 12.6156 7.27552 12.6156 7.61538V10.9196L13.4293 10.1059C13.6696 9.86554 14.0592 9.86554 14.2995 10.1059C14.5399 10.3462 14.5399 10.7358 14.2995 10.9761L12.4353 12.8404C12.195 13.0807 11.8053 13.0807 11.565 12.8404L9.7008 10.9761C9.46048 10.7358 9.46048 10.3462 9.7008 10.1059C9.94112 9.86554 10.3308 9.86554 10.5711 10.1059L11.3848 10.9196V7.61538C11.3848 7.27552 11.6603 7 12.0002 7Z" fill="url(#paint4_linear_0_176)"/>
<path d="M12.0002 7C12.34 7 12.6156 7.27552 12.6156 7.61538V10.9196L13.4293 10.1059C13.6696 9.86554 14.0592 9.86554 14.2995 10.1059C14.5399 10.3462 14.5399 10.7358 14.2995 10.9761L12.4353 12.8404C12.195 13.0807 11.8053 13.0807 11.565 12.8404L9.7008 10.9761C9.46048 10.7358 9.46048 10.3462 9.7008 10.1059C9.94112 9.86554 10.3308 9.86554 10.5711 10.1059L11.3848 10.9196V7.61538C11.3848 7.27552 11.6603 7 12.0002 7Z" fill="white" fill-opacity="0.7"/>
<path d="M8.92325 13.7692C8.58338 13.7692 8.30786 14.0447 8.30786 14.3846C8.30786 14.7245 8.58338 15 8.92325 15H15.0771C15.417 15 15.6925 14.7245 15.6925 14.3846C15.6925 14.0447 15.417 13.7692 15.0771 13.7692H8.92325Z" fill="url(#paint5_linear_0_176)"/>
<path d="M8.92325 13.7692C8.58338 13.7692 8.30786 14.0447 8.30786 14.3846C8.30786 14.7245 8.58338 15 8.92325 15H15.0771C15.417 15 15.6925 14.7245 15.6925 14.3846C15.6925 14.0447 15.417 13.7692 15.0771 13.7692H8.92325Z" fill="white" fill-opacity="0.7"/>
</g>
<rect x="10" y="15" width="20" height="13.3333" rx="2.75862" fill="#2CFFCC"/>
<path d="M18.4485 25.6468C18.4101 25.7875 18.4742 25.9361 18.6029 26.0047C18.7316 26.0734 18.8906 26.0439 18.9862 25.9337L23.0487 21.2462C23.1288 21.1537 23.1476 21.023 23.0968 20.9117C23.0459 20.8004 22.9349 20.729 22.8125 20.729H20.7216L21.5515 17.6862C21.5899 17.5455 21.5258 17.397 21.3971 17.3283C21.2684 17.2597 21.1094 17.2891 21.0139 17.3994L16.9514 22.0869C16.8712 22.1793 16.8524 22.31 16.9032 22.4213C16.9541 22.5326 17.0652 22.604 17.1875 22.604H19.2784L18.4485 25.6468Z" fill="#1C1B24"/>
<defs>
<linearGradient id="paint0_linear_0_176" x1="10.889" y1="1.33333" x2="10.889" y2="7.29167" gradientUnits="userSpaceOnUse">
<stop stop-color="#D7AAFF"/>
<stop offset="1" stop-color="#583DA2"/>
</linearGradient>
<linearGradient id="paint1_linear_0_176" x1="17.5385" y1="-0.999755" x2="23.2305" y2="17.6478" gradientUnits="userSpaceOnUse">
<stop stop-color="#EEBEFF"/>
<stop offset="1" stop-color="#6D4AFF"/>
</linearGradient>
<linearGradient id="paint2_linear_0_176" x1="10.889" y1="1.33333" x2="10.889" y2="7.29167" gradientUnits="userSpaceOnUse">
<stop stop-color="#D7AAFF"/>
<stop offset="1" stop-color="#583DA2"/>
</linearGradient>
<linearGradient id="paint3_linear_0_176" x1="12" y1="4" x2="12" y2="5.33333" gradientUnits="userSpaceOnUse">
<stop stop-color="#1C1B24" stop-opacity="0"/>
<stop offset="1" stop-color="#1C1B24"/>
</linearGradient>
<linearGradient id="paint4_linear_0_176" x1="13.7043" y1="2.77799" x2="19.9571" y2="12.2327" gradientUnits="userSpaceOnUse">
<stop stop-color="#EEBEFF"/>
<stop offset="1" stop-color="#6D4AFF"/>
</linearGradient>
<linearGradient id="paint5_linear_0_176" x1="13.7043" y1="2.77799" x2="19.9571" y2="12.2327" gradientUnits="userSpaceOnUse">
<stop stop-color="#EEBEFF"/>
<stop offset="1" stop-color="#6D4AFF"/>
</linearGradient>
<clipPath id="clip0_0_176">
<rect width="24" height="16" fill="white" transform="translate(0 2)"/>
</clipPath>
</defs>
</svg>
